<svg width="113" height="47" viewBox="0 0 113 47" fill="none" xmlns="http://www.w3.org/2000/svg">
<path d="M12.0806 2.92397C12.5416 2.61983 12.6687 1.99956 12.3646 1.53857C12.0604 1.07758 11.4402 0.950429 10.9792 1.25458L11.5299 2.08928L12.0806 2.92397ZM45.2014 34.8293C45.6098 34.4575 45.6395 33.825 45.2677 33.4166L39.2089 26.7614C38.8371 26.353 38.2047 26.3234 37.7963 26.6952C37.3879 27.067 37.3582 27.6994 37.73 28.1078L43.1155 34.0236L37.1998 39.4091C36.7914 39.7809 36.7617 40.4134 37.1335 40.8218C37.5053 41.2302 38.1378 41.2598 38.5462 40.888L45.2014 34.8293ZM11.5299 2.08928L10.9792 1.25458C6.208 4.40243 3.69868 8.07399 3.39382 11.9432C3.08982 15.8017 5.00266 19.5548 8.40953 22.8206C15.2079 29.3374 28.3486 34.3319 44.4813 35.0887L44.5282 34.0898L44.5751 33.0909C28.7138 32.3468 16.1156 27.437 9.79352 21.3768C6.64014 18.354 5.14733 15.1504 5.38764 12.1003C5.62711 9.06102 7.61209 5.87213 12.0806 2.92397L11.5299 2.08928Z" fill="black"/>
<path d="M102.002 4.0037C114.565 16.6309 103.183 30.144 76.0018 35.0037" stroke="black" stroke-width="1.8" stroke-linecap="round"/>
<path d="M52.2011 33.7521V33.4567C52.2011 32.4154 51.5643 32.2132 50.7095 32.2132C50.1842 32.2132 50.0109 31.747 50.0109 31.2809C50.0109 30.8147 50.1816 30.3486 50.7095 30.3486C51.3004 30.3486 51.9214 30.2711 51.9214 29.0132C51.9214 28.1124 51.4093 27.8945 50.7712 27.8945C50.0096 27.8945 49.6222 28.0809 49.6222 28.6823C49.6222 29.2075 49.3885 29.5673 48.4877 29.5673C47.369 29.5673 47.2298 29.3336 47.2298 28.5878C47.2298 27.3758 48.0991 25.8066 50.7751 25.8066C52.7448 25.8066 54.239 26.521 54.239 28.6193C54.2899 29.1125 54.2055 29.6103 53.9947 30.0591C53.7839 30.5079 53.4549 30.8908 53.0428 31.1667C53.5244 31.3151 53.9423 31.6207 54.2296 32.0347C54.5169 32.4487 54.6571 32.947 54.6277 33.4501V33.7456C54.6277 36.293 52.8721 37.2568 50.6977 37.2568C48.0255 37.2568 47 35.6259 47 34.3207C47 33.6221 47.2954 33.4344 48.149 33.4344C49.143 33.4344 49.3911 33.6523 49.3911 34.2419C49.3911 34.972 50.0752 35.1427 50.7738 35.1427C51.8243 35.1427 52.2038 34.7488 52.2038 33.7442" fill="black"/>
<path d="M63.7683 33.4444V33.5845C63.7683 36.2496 62.1103 37.2409 59.9704 37.2409C57.8306 37.2409 56.1582 36.2496 56.1582 33.5845V29.4777C56.1582 26.8127 57.8777 25.8213 60.1092 25.8213C62.7284 25.8213 63.7656 27.4478 63.7656 28.7338C63.7656 29.4777 63.4094 29.7095 62.6341 29.7095C61.9676 29.7095 61.3795 29.5392 61.3795 28.8268C61.3795 28.2375 60.7601 27.9284 60.032 27.9284C59.1153 27.9284 58.5757 28.409 58.5757 29.4777V30.8724C58.831 30.6268 59.136 30.4388 59.4702 30.3211C59.8043 30.2034 60.1597 30.1587 60.5126 30.1901C60.9534 30.1331 61.4015 30.178 61.8222 30.3214C62.243 30.4648 62.6252 30.7029 62.9394 31.0173C63.2537 31.3317 63.4916 31.714 63.6348 32.1348C63.778 32.5555 63.8228 33.0036 63.7656 33.4444M58.5744 33.7548C58.5744 34.8234 59.0982 35.2883 59.9691 35.2883C60.84 35.2883 61.3481 34.8234 61.3481 33.7548V33.6147C61.3481 32.4832 60.8374 32.0432 59.9534 32.0432C59.7627 32.0198 59.5691 32.041 59.388 32.1051C59.2068 32.1692 59.043 32.2744 58.9094 32.4124C58.7757 32.5505 58.6759 32.7177 58.6178 32.9008C58.5597 33.084 58.5448 33.2781 58.5744 33.468V33.7548Z" fill="black"/>
<path d="M65.3154 33.5912V29.472C65.3154 26.799 66.9783 25.8047 69.1246 25.8047C71.2709 25.8047 72.947 26.799 72.947 29.472V33.5899C72.947 36.2629 71.2683 37.2573 69.1246 37.2573C66.981 37.2573 65.3154 36.2643 65.3154 33.5912ZM70.5209 29.472C70.5209 28.4002 69.9955 27.9181 69.122 27.9181C68.2485 27.9181 67.7389 28.4002 67.7389 29.472V33.5899C67.7389 34.6618 68.2512 35.1438 69.122 35.1438C69.9929 35.1438 70.5209 34.6618 70.5209 33.5899V29.472Z" fill="black"/>
<path d="M74.4736 26.9998C74.1717 26.9998 73.8766 26.9119 73.6256 26.7471C73.3746 26.5822 73.179 26.348 73.0634 26.0739C72.9479 25.7998 72.9177 25.4983 72.9766 25.2073C73.0355 24.9163 73.1809 24.6491 73.3943 24.4393C73.6078 24.2295 73.8797 24.0867 74.1758 24.0288C74.4719 23.9709 74.7788 24.0006 75.0577 24.1142C75.3366 24.2277 75.5749 24.4199 75.7427 24.6666C75.9104 24.9133 75.9999 25.2033 75.9999 25.4999C75.9992 25.8975 75.8381 26.2786 75.552 26.5597C75.266 26.8409 74.8782 26.9991 74.4736 26.9998ZM74.4736 24.9985C74.3729 24.9985 74.2744 25.0279 74.1907 25.0828C74.107 25.1378 74.0417 25.216 74.0032 25.3074C73.9647 25.3988 73.9546 25.4994 73.9742 25.5965C73.9939 25.6935 74.0424 25.7827 74.1136 25.8526C74.1848 25.9226 74.2755 25.9703 74.3742 25.9896C74.473 26.0089 74.5754 25.999 74.6684 25.9611C74.7614 25.9232 74.841 25.8591 74.8969 25.7768C74.9529 25.6945 74.9827 25.5978 74.9827 25.4988C74.9826 25.3662 74.9289 25.239 74.8334 25.1452C74.738 25.0514 74.6086 24.9987 74.4736 24.9985Z" fill="black"/>
</svg>
